<mxfile host="app.diagrams.net" modified="2022-05-03T13:04:52.865Z" agent="5.0 (X11)" etag="Px_-tgzerJ63ka5-GpYI" version="17.5.0" type="github">
  <diagram id="NS8fjf3agCHtfwVqrlrh" name="Page-1">
    <mxGraphModel dx="1702" dy="780" grid="1" gridSize="10" guides="1" tooltips="1" connect="1" arrows="1" fold="1" page="1" pageScale="1" pageWidth="827" pageHeight="1169" math="0" shadow="1">
      <root>
        <mxCell id="0" />
        <mxCell id="1" parent="0" />
        <mxCell id="HFAzNyhK0tVcJAnhIOPs-2" value="&lt;div&gt;Funcionario&lt;/div&gt;" style="rounded=0;arcSize=10;whiteSpace=wrap;html=1;align=center;" parent="1" vertex="1">
          <mxGeometry x="180" y="225" width="80" height="30" as="geometry" />
        </mxCell>
        <mxCell id="HFAzNyhK0tVcJAnhIOPs-3" value="Trabalha" style="shape=rhombus;perimeter=rhombusPerimeter;whiteSpace=wrap;html=1;align=center;rounded=0;" parent="1" vertex="1">
          <mxGeometry x="160" y="120" width="120" height="60" as="geometry" />
        </mxCell>
        <mxCell id="HFAzNyhK0tVcJAnhIOPs-10" value="" style="shape=link;html=1;rounded=0;exitX=0.5;exitY=1;exitDx=0;exitDy=0;entryX=0.5;entryY=0;entryDx=0;entryDy=0;curved=1;" parent="1" source="HFAzNyhK0tVcJAnhIOPs-3" target="HFAzNyhK0tVcJAnhIOPs-2" edge="1">
          <mxGeometry relative="1" as="geometry">
            <mxPoint x="230" y="180" as="sourcePoint" />
            <mxPoint x="370" y="180" as="targetPoint" />
          </mxGeometry>
        </mxCell>
        <mxCell id="HFAzNyhK0tVcJAnhIOPs-11" value="N" style="resizable=0;html=1;align=right;verticalAlign=bottom;rounded=0;" parent="HFAzNyhK0tVcJAnhIOPs-10" connectable="0" vertex="1">
          <mxGeometry x="1" relative="1" as="geometry">
            <mxPoint x="16" as="offset" />
          </mxGeometry>
        </mxCell>
        <mxCell id="HFAzNyhK0tVcJAnhIOPs-12" value="&lt;u&gt;rg&lt;/u&gt;" style="ellipse;whiteSpace=wrap;html=1;align=center;rounded=0;" parent="1" vertex="1">
          <mxGeometry x="280" y="200" width="60" height="20" as="geometry" />
        </mxCell>
        <mxCell id="HFAzNyhK0tVcJAnhIOPs-13" value="tipo" style="ellipse;whiteSpace=wrap;html=1;align=center;rounded=0;" parent="1" vertex="1">
          <mxGeometry x="300" y="230" width="60" height="20" as="geometry" />
        </mxCell>
        <mxCell id="HFAzNyhK0tVcJAnhIOPs-18" value="" style="endArrow=none;html=1;rounded=0;exitX=1;exitY=0.5;exitDx=0;exitDy=0;entryX=0;entryY=0.5;entryDx=0;entryDy=0;curved=1;" parent="1" source="HFAzNyhK0tVcJAnhIOPs-2" target="HFAzNyhK0tVcJAnhIOPs-13" edge="1">
          <mxGeometry width="50" height="50" relative="1" as="geometry">
            <mxPoint x="350" y="330" as="sourcePoint" />
            <mxPoint x="400" y="280" as="targetPoint" />
          </mxGeometry>
        </mxCell>
        <mxCell id="HFAzNyhK0tVcJAnhIOPs-19" value="" style="endArrow=none;html=1;rounded=0;exitX=1;exitY=0.5;exitDx=0;exitDy=0;curved=1;" parent="1" source="HFAzNyhK0tVcJAnhIOPs-2" target="HFAzNyhK0tVcJAnhIOPs-12" edge="1">
          <mxGeometry width="50" height="50" relative="1" as="geometry">
            <mxPoint x="350" y="330" as="sourcePoint" />
            <mxPoint x="400" y="280" as="targetPoint" />
          </mxGeometry>
        </mxCell>
        <mxCell id="HFAzNyhK0tVcJAnhIOPs-21" value="Sala" style="rounded=0;arcSize=10;whiteSpace=wrap;html=1;align=center;" parent="1" vertex="1">
          <mxGeometry x="505" y="48" width="80" height="36" as="geometry" />
        </mxCell>
        <mxCell id="HFAzNyhK0tVcJAnhIOPs-29" value="Material" style="rounded=0;arcSize=10;whiteSpace=wrap;html=1;align=center;" parent="1" vertex="1">
          <mxGeometry x="505" y="213" width="90" height="30" as="geometry" />
        </mxCell>
        <mxCell id="HFAzNyhK0tVcJAnhIOPs-32" value="&lt;u&gt;num&lt;/u&gt;" style="ellipse;whiteSpace=wrap;html=1;align=center;rounded=0;" parent="1" vertex="1">
          <mxGeometry x="530" y="10" width="60" height="20" as="geometry" />
        </mxCell>
        <mxCell id="HFAzNyhK0tVcJAnhIOPs-33" value="" style="endArrow=none;html=1;rounded=0;curved=1;" parent="1" source="HFAzNyhK0tVcJAnhIOPs-21" edge="1">
          <mxGeometry width="50" height="50" relative="1" as="geometry">
            <mxPoint x="510" y="80" as="sourcePoint" />
            <mxPoint x="560" y="30" as="targetPoint" />
          </mxGeometry>
        </mxCell>
        <mxCell id="HFAzNyhK0tVcJAnhIOPs-34" value="&lt;u&gt;cod&lt;/u&gt;" style="ellipse;whiteSpace=wrap;html=1;align=center;rounded=0;" parent="1" vertex="1">
          <mxGeometry x="628.75" y="220" width="40" height="20" as="geometry" />
        </mxCell>
        <mxCell id="HFAzNyhK0tVcJAnhIOPs-35" value="" style="endArrow=none;html=1;rounded=0;entryX=0;entryY=0.5;entryDx=0;entryDy=0;exitX=1;exitY=0.5;exitDx=0;exitDy=0;curved=1;" parent="1" source="HFAzNyhK0tVcJAnhIOPs-29" target="HFAzNyhK0tVcJAnhIOPs-34" edge="1">
          <mxGeometry width="50" height="50" relative="1" as="geometry">
            <mxPoint x="570" y="270" as="sourcePoint" />
            <mxPoint x="620" y="220" as="targetPoint" />
          </mxGeometry>
        </mxCell>
        <mxCell id="HFAzNyhK0tVcJAnhIOPs-38" value="qtd" style="ellipse;whiteSpace=wrap;html=1;align=center;rounded=0;" parent="1" vertex="1">
          <mxGeometry x="597.5" y="160" width="40" height="20" as="geometry" />
        </mxCell>
        <mxCell id="HFAzNyhK0tVcJAnhIOPs-40" value="" style="endArrow=none;html=1;rounded=0;strokeWidth=1;curved=1;" parent="1" source="HFAzNyhK0tVcJAnhIOPs-29" target="HFAzNyhK0tVcJAnhIOPs-38" edge="1">
          <mxGeometry width="50" height="50" relative="1" as="geometry">
            <mxPoint x="560" y="246" as="sourcePoint" />
            <mxPoint x="617.7011756126099" y="207.68964731621713" as="targetPoint" />
            <Array as="points">
              <mxPoint x="590" y="200" />
            </Array>
          </mxGeometry>
        </mxCell>
        <mxCell id="HFAzNyhK0tVcJAnhIOPs-41" value="&lt;div&gt;nome&lt;/div&gt;" style="ellipse;whiteSpace=wrap;html=1;align=center;rounded=0;" parent="1" vertex="1">
          <mxGeometry x="610" y="245" width="40" height="20" as="geometry" />
        </mxCell>
        <mxCell id="HFAzNyhK0tVcJAnhIOPs-42" value="" style="endArrow=none;html=1;rounded=0;strokeWidth=1;curved=1;" parent="1" source="HFAzNyhK0tVcJAnhIOPs-29" target="HFAzNyhK0tVcJAnhIOPs-41" edge="1">
          <mxGeometry width="50" height="50" relative="1" as="geometry">
            <mxPoint x="590" y="271.1037293657747" as="sourcePoint" />
            <mxPoint x="610" y="250" as="targetPoint" />
          </mxGeometry>
        </mxCell>
        <mxCell id="HFAzNyhK0tVcJAnhIOPs-75" style="edgeStyle=orthogonalEdgeStyle;rounded=0;orthogonalLoop=1;jettySize=auto;html=1;endArrow=none;endFill=0;strokeWidth=1;entryX=0.5;entryY=0;entryDx=0;entryDy=0;curved=1;" parent="1" source="HFAzNyhK0tVcJAnhIOPs-43" target="HFAzNyhK0tVcJAnhIOPs-57" edge="1">
          <mxGeometry relative="1" as="geometry">
            <mxPoint x="295" y="400" as="targetPoint" />
            <Array as="points">
              <mxPoint x="220" y="430" />
              <mxPoint x="315" y="430" />
            </Array>
          </mxGeometry>
        </mxCell>
        <mxCell id="HFAzNyhK0tVcJAnhIOPs-43" value="&lt;div&gt;Classe&lt;/div&gt;" style="shape=hexagon;perimeter=hexagonPerimeter2;whiteSpace=wrap;html=1;fixedSize=1;rounded=0;" parent="1" vertex="1">
          <mxGeometry x="180" y="300" width="80" height="40" as="geometry" />
        </mxCell>
        <mxCell id="HFAzNyhK0tVcJAnhIOPs-48" value="" style="endArrow=none;html=1;rounded=0;curved=1;" parent="1" source="HFAzNyhK0tVcJAnhIOPs-43" target="HFAzNyhK0tVcJAnhIOPs-2" edge="1">
          <mxGeometry relative="1" as="geometry">
            <mxPoint x="219.74" y="294" as="sourcePoint" />
            <mxPoint x="219.74" y="260" as="targetPoint" />
          </mxGeometry>
        </mxCell>
        <mxCell id="HFAzNyhK0tVcJAnhIOPs-57" value="Medico" style="rounded=0;arcSize=10;whiteSpace=wrap;html=1;align=center;" parent="1" vertex="1">
          <mxGeometry x="270" y="415" width="90" height="30" as="geometry" />
        </mxCell>
        <mxCell id="HFAzNyhK0tVcJAnhIOPs-67" value="especialidade" style="ellipse;whiteSpace=wrap;html=1;align=center;rounded=0;" parent="1" vertex="1">
          <mxGeometry x="214" y="460" width="86" height="25" as="geometry" />
        </mxCell>
        <mxCell id="HFAzNyhK0tVcJAnhIOPs-69" value="" style="endArrow=none;html=1;rounded=0;strokeWidth=1;curved=1;" parent="1" source="HFAzNyhK0tVcJAnhIOPs-57" target="HFAzNyhK0tVcJAnhIOPs-67" edge="1">
          <mxGeometry width="50" height="50" relative="1" as="geometry">
            <mxPoint x="-40" y="570" as="sourcePoint" />
            <mxPoint x="10" y="520" as="targetPoint" />
          </mxGeometry>
        </mxCell>
        <mxCell id="HFAzNyhK0tVcJAnhIOPs-71" value="Paciente" style="rounded=0;arcSize=10;whiteSpace=wrap;html=1;align=center;" parent="1" vertex="1">
          <mxGeometry x="950" y="438.75" width="90" height="30" as="geometry" />
        </mxCell>
        <mxCell id="HFAzNyhK0tVcJAnhIOPs-76" value="&lt;u&gt;rg&lt;/u&gt;" style="ellipse;whiteSpace=wrap;html=1;align=center;rounded=0;" parent="1" vertex="1">
          <mxGeometry x="920" y="357.5" width="40" height="20" as="geometry" />
        </mxCell>
        <mxCell id="HFAzNyhK0tVcJAnhIOPs-77" value="" style="endArrow=none;html=1;rounded=0;strokeWidth=1;curved=1;" parent="1" source="HFAzNyhK0tVcJAnhIOPs-76" target="HFAzNyhK0tVcJAnhIOPs-71" edge="1">
          <mxGeometry width="50" height="50" relative="1" as="geometry">
            <mxPoint x="670" y="595" as="sourcePoint" />
            <mxPoint x="720" y="545" as="targetPoint" />
          </mxGeometry>
        </mxCell>
        <mxCell id="HFAzNyhK0tVcJAnhIOPs-78" value="&lt;div&gt;nome&lt;/div&gt;" style="ellipse;whiteSpace=wrap;html=1;align=center;rounded=0;" parent="1" vertex="1">
          <mxGeometry x="1185" y="440" width="35" height="27.5" as="geometry" />
        </mxCell>
        <mxCell id="HFAzNyhK0tVcJAnhIOPs-79" value="dta_nasc" style="ellipse;whiteSpace=wrap;html=1;align=center;rounded=0;" parent="1" vertex="1">
          <mxGeometry x="892.5" y="385" width="57.5" height="27.5" as="geometry" />
        </mxCell>
        <mxCell id="HFAzNyhK0tVcJAnhIOPs-81" value="num_saude" style="ellipse;whiteSpace=wrap;html=1;align=center;rounded=0;" parent="1" vertex="1">
          <mxGeometry x="1090" y="456.25" width="75" height="30" as="geometry" />
        </mxCell>
        <mxCell id="HFAzNyhK0tVcJAnhIOPs-82" value="sus" style="ellipse;whiteSpace=wrap;html=1;align=center;rounded=0;" parent="1" vertex="1">
          <mxGeometry x="1137.5" y="496.25" width="30" height="20" as="geometry" />
        </mxCell>
        <mxCell id="HFAzNyhK0tVcJAnhIOPs-83" value="endereço" style="ellipse;whiteSpace=wrap;html=1;align=center;rounded=0;" parent="1" vertex="1">
          <mxGeometry x="1097.5" y="305" width="60" height="30" as="geometry" />
        </mxCell>
        <mxCell id="HFAzNyhK0tVcJAnhIOPs-84" value="&lt;div&gt;cep&lt;/div&gt;" style="ellipse;whiteSpace=wrap;html=1;align=center;rounded=0;" parent="1" vertex="1">
          <mxGeometry x="1117.5" y="270" width="40" height="22.5" as="geometry" />
        </mxCell>
        <mxCell id="HFAzNyhK0tVcJAnhIOPs-86" value="sexo" style="ellipse;whiteSpace=wrap;html=1;align=center;rounded=0;" parent="1" vertex="1">
          <mxGeometry x="960" y="385" width="50" height="30" as="geometry" />
        </mxCell>
        <mxCell id="HFAzNyhK0tVcJAnhIOPs-87" value="" style="endArrow=none;html=1;rounded=0;strokeWidth=1;curved=1;" parent="1" source="HFAzNyhK0tVcJAnhIOPs-78" target="HFAzNyhK0tVcJAnhIOPs-71" edge="1">
          <mxGeometry width="50" height="50" relative="1" as="geometry">
            <mxPoint x="676.641005886755" y="530.5470019622516" as="sourcePoint" />
            <mxPoint x="690.0000000000002" y="535" as="targetPoint" />
          </mxGeometry>
        </mxCell>
        <mxCell id="HFAzNyhK0tVcJAnhIOPs-88" value="" style="endArrow=none;html=1;rounded=0;strokeWidth=1;curved=1;" parent="1" source="HFAzNyhK0tVcJAnhIOPs-121" target="HFAzNyhK0tVcJAnhIOPs-71" edge="1">
          <mxGeometry width="50" height="50" relative="1" as="geometry">
            <mxPoint x="648.7067821543549" y="491.7266395594463" as="sourcePoint" />
            <mxPoint x="740" y="555" as="targetPoint" />
          </mxGeometry>
        </mxCell>
        <mxCell id="HFAzNyhK0tVcJAnhIOPs-89" value="" style="endArrow=none;html=1;rounded=0;strokeWidth=1;curved=1;" parent="1" source="HFAzNyhK0tVcJAnhIOPs-86" target="HFAzNyhK0tVcJAnhIOPs-71" edge="1">
          <mxGeometry width="50" height="50" relative="1" as="geometry">
            <mxPoint x="950" y="625" as="sourcePoint" />
            <mxPoint x="1000" y="575" as="targetPoint" />
          </mxGeometry>
        </mxCell>
        <mxCell id="HFAzNyhK0tVcJAnhIOPs-90" value="" style="endArrow=none;html=1;rounded=0;strokeWidth=1;curved=1;" parent="1" source="HFAzNyhK0tVcJAnhIOPs-79" target="HFAzNyhK0tVcJAnhIOPs-71" edge="1">
          <mxGeometry width="50" height="50" relative="1" as="geometry">
            <mxPoint x="950" y="625" as="sourcePoint" />
            <mxPoint x="1000" y="575" as="targetPoint" />
          </mxGeometry>
        </mxCell>
        <mxCell id="HFAzNyhK0tVcJAnhIOPs-92" value="" style="endArrow=none;html=1;rounded=0;strokeWidth=1;curved=1;" parent="1" source="HFAzNyhK0tVcJAnhIOPs-71" target="HFAzNyhK0tVcJAnhIOPs-83" edge="1">
          <mxGeometry width="50" height="50" relative="1" as="geometry">
            <mxPoint x="740" y="595" as="sourcePoint" />
            <mxPoint x="790" y="545" as="targetPoint" />
          </mxGeometry>
        </mxCell>
        <mxCell id="HFAzNyhK0tVcJAnhIOPs-93" value="" style="endArrow=none;html=1;rounded=0;strokeWidth=1;curved=1;" parent="1" source="HFAzNyhK0tVcJAnhIOPs-84" target="HFAzNyhK0tVcJAnhIOPs-83" edge="1">
          <mxGeometry width="50" height="50" relative="1" as="geometry">
            <mxPoint x="1097.5" y="610" as="sourcePoint" />
            <mxPoint x="1147.5" y="560" as="targetPoint" />
          </mxGeometry>
        </mxCell>
        <mxCell id="HFAzNyhK0tVcJAnhIOPs-94" value="cidade" style="ellipse;whiteSpace=wrap;html=1;align=center;dashed=1;rounded=0;" parent="1" vertex="1">
          <mxGeometry x="1165" y="272" width="50" height="30" as="geometry" />
        </mxCell>
        <mxCell id="HFAzNyhK0tVcJAnhIOPs-95" value="" style="endArrow=none;html=1;rounded=0;strokeWidth=1;curved=1;" parent="1" source="HFAzNyhK0tVcJAnhIOPs-83" target="HFAzNyhK0tVcJAnhIOPs-94" edge="1">
          <mxGeometry width="50" height="50" relative="1" as="geometry">
            <mxPoint x="1117.5" y="460" as="sourcePoint" />
            <mxPoint x="1147.5" y="560" as="targetPoint" />
          </mxGeometry>
        </mxCell>
        <mxCell id="HFAzNyhK0tVcJAnhIOPs-96" value="estado" style="ellipse;whiteSpace=wrap;html=1;align=center;dashed=1;rounded=0;" parent="1" vertex="1">
          <mxGeometry x="1165" y="312.5" width="50" height="25" as="geometry" />
        </mxCell>
        <mxCell id="HFAzNyhK0tVcJAnhIOPs-97" value="" style="endArrow=none;html=1;rounded=0;strokeWidth=1;curved=1;" parent="1" source="HFAzNyhK0tVcJAnhIOPs-83" target="HFAzNyhK0tVcJAnhIOPs-96" edge="1">
          <mxGeometry width="50" height="50" relative="1" as="geometry">
            <mxPoint x="1097.5" y="610" as="sourcePoint" />
            <mxPoint x="1147.5" y="560" as="targetPoint" />
          </mxGeometry>
        </mxCell>
        <mxCell id="HFAzNyhK0tVcJAnhIOPs-98" value="" style="endArrow=none;html=1;rounded=0;strokeWidth=1;curved=1;" parent="1" source="HFAzNyhK0tVcJAnhIOPs-83" target="HFAzNyhK0tVcJAnhIOPs-99" edge="1">
          <mxGeometry width="50" height="50" relative="1" as="geometry">
            <mxPoint x="1167.5" y="560" as="sourcePoint" />
            <mxPoint x="1217.5" y="510" as="targetPoint" />
          </mxGeometry>
        </mxCell>
        <mxCell id="HFAzNyhK0tVcJAnhIOPs-99" value="logradouro" style="ellipse;whiteSpace=wrap;html=1;align=center;rounded=0;" parent="1" vertex="1">
          <mxGeometry x="1102.5" y="343.75" width="80" height="30" as="geometry" />
        </mxCell>
        <mxCell id="HFAzNyhK0tVcJAnhIOPs-105" value="num" style="ellipse;whiteSpace=wrap;html=1;align=center;rounded=0;" parent="1" vertex="1">
          <mxGeometry x="1197.5" y="348.75" width="35" height="20" as="geometry" />
        </mxCell>
        <mxCell id="HFAzNyhK0tVcJAnhIOPs-107" value="" style="endArrow=none;html=1;rounded=0;strokeWidth=1;exitX=0.774;exitY=0.919;exitDx=0;exitDy=0;exitPerimeter=0;curved=1;" parent="1" source="HFAzNyhK0tVcJAnhIOPs-83" target="HFAzNyhK0tVcJAnhIOPs-105" edge="1">
          <mxGeometry width="50" height="50" relative="1" as="geometry">
            <mxPoint x="1097.5" y="610" as="sourcePoint" />
            <mxPoint x="1147.5" y="560" as="targetPoint" />
          </mxGeometry>
        </mxCell>
        <mxCell id="HFAzNyhK0tVcJAnhIOPs-108" value="complemento" style="ellipse;whiteSpace=wrap;html=1;align=center;rounded=0;" parent="1" vertex="1">
          <mxGeometry x="1217.5" y="280" width="90" height="30" as="geometry" />
        </mxCell>
        <mxCell id="HFAzNyhK0tVcJAnhIOPs-110" value="" style="endArrow=none;html=1;rounded=0;strokeWidth=1;curved=1;" parent="1" source="HFAzNyhK0tVcJAnhIOPs-83" target="HFAzNyhK0tVcJAnhIOPs-108" edge="1">
          <mxGeometry width="50" height="50" relative="1" as="geometry">
            <mxPoint x="1097.5" y="610" as="sourcePoint" />
            <mxPoint x="1147.5" y="560" as="targetPoint" />
          </mxGeometry>
        </mxCell>
        <mxCell id="HFAzNyhK0tVcJAnhIOPs-111" value="" style="endArrow=none;html=1;rounded=0;strokeWidth=1;curved=1;" parent="1" source="HFAzNyhK0tVcJAnhIOPs-81" target="HFAzNyhK0tVcJAnhIOPs-71" edge="1">
          <mxGeometry width="50" height="50" relative="1" as="geometry">
            <mxPoint x="670.6990560803406" y="598.3263429146182" as="sourcePoint" />
            <mxPoint x="715.0000000000002" y="565" as="targetPoint" />
          </mxGeometry>
        </mxCell>
        <mxCell id="HFAzNyhK0tVcJAnhIOPs-112" value="" style="endArrow=none;html=1;rounded=0;strokeWidth=1;curved=1;" parent="1" source="HFAzNyhK0tVcJAnhIOPs-81" target="HFAzNyhK0tVcJAnhIOPs-82" edge="1">
          <mxGeometry width="50" height="50" relative="1" as="geometry">
            <mxPoint x="1082.6725859053965" y="631.2835189297807" as="sourcePoint" />
            <mxPoint x="1092.1875000000002" y="581.25" as="targetPoint" />
          </mxGeometry>
        </mxCell>
        <mxCell id="HFAzNyhK0tVcJAnhIOPs-113" value="senha" style="ellipse;whiteSpace=wrap;html=1;align=center;rounded=0;" parent="1" vertex="1">
          <mxGeometry x="300" y="260" width="60" height="20" as="geometry" />
        </mxCell>
        <mxCell id="HFAzNyhK0tVcJAnhIOPs-114" value="" style="endArrow=none;html=1;rounded=0;strokeWidth=1;curved=1;" parent="1" source="HFAzNyhK0tVcJAnhIOPs-113" target="HFAzNyhK0tVcJAnhIOPs-2" edge="1">
          <mxGeometry width="50" height="50" relative="1" as="geometry">
            <mxPoint x="-80" y="400" as="sourcePoint" />
            <mxPoint x="-30" y="350" as="targetPoint" />
          </mxGeometry>
        </mxCell>
        <mxCell id="HFAzNyhK0tVcJAnhIOPs-115" value="nome_mae" style="ellipse;whiteSpace=wrap;html=1;align=center;rounded=0;" parent="1" vertex="1">
          <mxGeometry x="1042.05" y="541.25" width="67.95" height="28.75" as="geometry" />
        </mxCell>
        <mxCell id="HFAzNyhK0tVcJAnhIOPs-116" value="" style="endArrow=none;html=1;rounded=0;strokeWidth=1;curved=1;" parent="1" source="HFAzNyhK0tVcJAnhIOPs-115" target="HFAzNyhK0tVcJAnhIOPs-71" edge="1">
          <mxGeometry width="50" height="50" relative="1" as="geometry">
            <mxPoint x="723.54638669354" y="504.89482411286804" as="sourcePoint" />
            <mxPoint x="731.25" y="535" as="targetPoint" />
          </mxGeometry>
        </mxCell>
        <mxCell id="HFAzNyhK0tVcJAnhIOPs-118" value="hygia" style="ellipse;whiteSpace=wrap;html=1;align=center;rounded=0;" parent="1" vertex="1">
          <mxGeometry x="1172.5" y="476.25" width="40" height="20" as="geometry" />
        </mxCell>
        <mxCell id="HFAzNyhK0tVcJAnhIOPs-119" value="" style="endArrow=none;html=1;rounded=0;strokeWidth=1;curved=1;" parent="1" source="HFAzNyhK0tVcJAnhIOPs-81" target="HFAzNyhK0tVcJAnhIOPs-118" edge="1">
          <mxGeometry width="50" height="50" relative="1" as="geometry">
            <mxPoint x="1054.944355667357" y="657.9426340219002" as="sourcePoint" />
            <mxPoint x="1032.0587201990418" y="668.4197677774891" as="targetPoint" />
          </mxGeometry>
        </mxCell>
        <mxCell id="HFAzNyhK0tVcJAnhIOPs-121" value="telefone" style="ellipse;shape=doubleEllipse;margin=3;whiteSpace=wrap;html=1;align=center;rounded=0;" parent="1" vertex="1">
          <mxGeometry x="1110" y="405" width="70" height="35" as="geometry" />
        </mxCell>
        <mxCell id="HFAzNyhK0tVcJAnhIOPs-122" value="tipo" style="ellipse;whiteSpace=wrap;html=1;align=center;rounded=0;" parent="1" vertex="1">
          <mxGeometry x="558.75" y="180" width="35" height="20" as="geometry" />
        </mxCell>
        <mxCell id="HFAzNyhK0tVcJAnhIOPs-123" value="" style="endArrow=none;html=1;rounded=0;strokeWidth=1;curved=1;" parent="1" source="HFAzNyhK0tVcJAnhIOPs-29" target="HFAzNyhK0tVcJAnhIOPs-122" edge="1">
          <mxGeometry width="50" height="50" relative="1" as="geometry">
            <mxPoint x="600" y="251.95651319137562" as="sourcePoint" />
            <mxPoint x="626.1918091612383" y="258.9156845634276" as="targetPoint" />
          </mxGeometry>
        </mxCell>
        <mxCell id="HFAzNyhK0tVcJAnhIOPs-126" value="Armazenado_em" style="shape=rhombus;perimeter=rhombusPerimeter;whiteSpace=wrap;html=1;align=center;rounded=0;" parent="1" vertex="1">
          <mxGeometry x="485" y="120" width="130" height="46" as="geometry" />
        </mxCell>
        <mxCell id="HFAzNyhK0tVcJAnhIOPs-127" value="" style="shape=link;html=1;rounded=0;width=3.6842105263157894;curved=1;" parent="1" source="HFAzNyhK0tVcJAnhIOPs-126" target="HFAzNyhK0tVcJAnhIOPs-29" edge="1">
          <mxGeometry relative="1" as="geometry">
            <mxPoint x="453" y="303" as="sourcePoint" />
            <mxPoint x="540" y="400" as="targetPoint" />
            <Array as="points" />
          </mxGeometry>
        </mxCell>
        <mxCell id="HFAzNyhK0tVcJAnhIOPs-128" value="N" style="resizable=0;html=1;align=right;verticalAlign=bottom;rounded=0;" parent="HFAzNyhK0tVcJAnhIOPs-127" connectable="0" vertex="1">
          <mxGeometry x="1" relative="1" as="geometry">
            <mxPoint x="-6" y="-4" as="offset" />
          </mxGeometry>
        </mxCell>
        <mxCell id="HFAzNyhK0tVcJAnhIOPs-129" value="" style="endArrow=none;html=1;rounded=0;curved=1;" parent="1" source="HFAzNyhK0tVcJAnhIOPs-126" target="HFAzNyhK0tVcJAnhIOPs-21" edge="1">
          <mxGeometry relative="1" as="geometry">
            <mxPoint x="344" y="76" as="sourcePoint" />
            <mxPoint x="280" y="76" as="targetPoint" />
          </mxGeometry>
        </mxCell>
        <mxCell id="HFAzNyhK0tVcJAnhIOPs-130" value="1" style="resizable=0;html=1;align=right;verticalAlign=bottom;rounded=0;" parent="HFAzNyhK0tVcJAnhIOPs-129" connectable="0" vertex="1">
          <mxGeometry x="1" relative="1" as="geometry">
            <mxPoint x="14" y="16" as="offset" />
          </mxGeometry>
        </mxCell>
        <mxCell id="HFAzNyhK0tVcJAnhIOPs-132" value="" style="endArrow=none;html=1;rounded=0;strokeWidth=1;curved=1;" parent="1" source="HFAzNyhK0tVcJAnhIOPs-29" target="HFAzNyhK0tVcJAnhIOPs-133" edge="1">
          <mxGeometry width="50" height="50" relative="1" as="geometry">
            <mxPoint x="566.1189221280351" y="253" as="sourcePoint" />
            <mxPoint x="511.1131165887691" y="260.7114249407301" as="targetPoint" />
          </mxGeometry>
        </mxCell>
        <mxCell id="HFAzNyhK0tVcJAnhIOPs-133" value="efeito" style="ellipse;shape=doubleEllipse;margin=3;whiteSpace=wrap;html=1;align=center;rounded=0;" parent="1" vertex="1">
          <mxGeometry x="600" y="185" width="65" height="25" as="geometry" />
        </mxCell>
        <mxCell id="HFAzNyhK0tVcJAnhIOPs-134" value="instruções" style="ellipse;whiteSpace=wrap;html=1;align=center;rounded=0;" parent="1" vertex="1">
          <mxGeometry x="558.75" y="265" width="70" height="25" as="geometry" />
        </mxCell>
        <mxCell id="HFAzNyhK0tVcJAnhIOPs-135" value="" style="endArrow=none;html=1;rounded=0;strokeWidth=1;curved=1;" parent="1" source="HFAzNyhK0tVcJAnhIOPs-134" target="HFAzNyhK0tVcJAnhIOPs-29" edge="1">
          <mxGeometry width="50" height="50" relative="1" as="geometry">
            <mxPoint x="290" y="320" as="sourcePoint" />
            <mxPoint x="340" y="270" as="targetPoint" />
          </mxGeometry>
        </mxCell>
        <mxCell id="HFAzNyhK0tVcJAnhIOPs-175" value="urgencia" style="ellipse;whiteSpace=wrap;html=1;align=center;rounded=0;" parent="1" vertex="1">
          <mxGeometry x="1020" y="316.25" width="65" height="27.5" as="geometry" />
        </mxCell>
        <mxCell id="HFAzNyhK0tVcJAnhIOPs-179" value="" style="endArrow=none;html=1;rounded=0;strokeWidth=1;curved=1;" parent="1" source="HFAzNyhK0tVcJAnhIOPs-71" target="HFAzNyhK0tVcJAnhIOPs-175" edge="1">
          <mxGeometry width="50" height="50" relative="1" as="geometry">
            <mxPoint x="655.8891414276518" y="410" as="sourcePoint" />
            <mxPoint x="705.358164111889" y="381.3379703093974" as="targetPoint" />
          </mxGeometry>
        </mxCell>
        <mxCell id="HFAzNyhK0tVcJAnhIOPs-195" value="situação" style="ellipse;whiteSpace=wrap;html=1;align=center;dashed=1;fontFamily=Helvetica;fontSize=12;rounded=0;" parent="1" vertex="1">
          <mxGeometry x="1070" y="495" width="60" height="30" as="geometry" />
        </mxCell>
        <mxCell id="HFAzNyhK0tVcJAnhIOPs-80" value="cpf" style="ellipse;whiteSpace=wrap;html=1;align=center;rounded=0;" parent="1" vertex="1">
          <mxGeometry x="1061.02" y="400" width="30" height="20" as="geometry" />
        </mxCell>
        <mxCell id="NKdHLzyLT835q1awHbiW-7" value="" style="endArrow=none;html=1;rounded=0;" edge="1" parent="1" source="HFAzNyhK0tVcJAnhIOPs-71" target="HFAzNyhK0tVcJAnhIOPs-80">
          <mxGeometry width="50" height="50" relative="1" as="geometry">
            <mxPoint x="1000" y="570" as="sourcePoint" />
            <mxPoint x="1050" y="520" as="targetPoint" />
          </mxGeometry>
        </mxCell>
        <mxCell id="NKdHLzyLT835q1awHbiW-8" value="" style="endArrow=none;html=1;rounded=0;" edge="1" parent="1" source="HFAzNyhK0tVcJAnhIOPs-195" target="HFAzNyhK0tVcJAnhIOPs-71">
          <mxGeometry width="50" height="50" relative="1" as="geometry">
            <mxPoint x="890" y="400" as="sourcePoint" />
            <mxPoint x="940" y="350" as="targetPoint" />
          </mxGeometry>
        </mxCell>
      </root>
    </mxGraphModel>
  </diagram>
</mxfile>
